# xmcd
#
# Track frame offsets:
# 150
# 2149
# 19605
# 35384
# 49758
# 67357
# 83638
# 101824
# 120861
# 137824
# 155771
# 174644
# 191591
# 207903
# 226524
# 243204
# 265496
# 280073
#
# Disc length: 3995 seconds
#
#
# Revision: 9
# Processed by: cddbd v1.5.1PL0 Copyright (c) Steve Scherf et al.
# Submitted via: FreeRIP 2.90 
#
DISCID=f20f9912
DTITLE=Zezé di Camargo and Luciano - 2003
DYEAR=2003
DGENRE=Sertanejo
TTITLE0=Intro
TTITLE1=Pra Mudar Minha Vida
TTITLE2=Nosso Amor É Ouro
TTITLE3=Meu Coração Mandou
TTITLE4=Demorou Demais
TTITLE5=Pra Sempre
TTITLE6=Uma Grande Mentira
TTITLE7=Irmão Da Lua, Amigo Das Estrelas
TTITLE8=Tristeza Do Jeca
TTITLE9=Galera Felicidade
TTITLE10=Não Dá Mais
TTITLE11=Esse Cara Não Existe Mais
TTITLE12=Deu Ocupado De Novo
TTITLE13=Eu Amo
TTITLE14=Toneladas De Paixão
TTITLE15=Não Era Pra Ser Assim
TTITLE16=Mexe Que Mexe
TTITLE17=Bebedeira
EXTD=YEAR: 2003
EXTT0=
EXTT1=
EXTT2=
EXTT3=
EXTT4=
EXTT5=
EXTT6=
EXTT7=
EXTT8=
EXTT9=
EXTT10=
EXTT11=
EXTT12=
EXTT13=
EXTT14=
EXTT15=
EXTT16=
EXTT17=
PLAYORDER=
